<?xml version="1.0" encoding="UTF-8" standalone="no"?>
<!-- Created with Inkscape (http://www.inkscape.org/) -->

<svg
   xmlns:dc="http://purl.org/dc/elements/1.1/"
   xmlns:cc="http://creativecommons.org/ns#"
   xmlns:rdf="http://www.w3.org/1999/02/22-rdf-syntax-ns#"
   xmlns:svg="http://www.w3.org/2000/svg"
   xmlns="http://www.w3.org/2000/svg"
   xmlns:xlink="http://www.w3.org/1999/xlink"
   xmlns:sodipodi="http://sodipodi.sourceforge.net/DTD/sodipodi-0.dtd"
   xmlns:inkscape="http://www.inkscape.org/namespaces/inkscape"
   width="210mm"
   height="297mm"
   id="svg2962"
   version="1.1"
   inkscape:version="0.47pre4 r22446"
   sodipodi:docname="Nouveau document 10">
  <defs
     id="defs2964">
    <inkscape:perspective
       sodipodi:type="inkscape:persp3d"
       inkscape:vp_x="0 : 526.18109 : 1"
       inkscape:vp_y="0 : 1000 : 0"
       inkscape:vp_z="744.09448 : 526.18109 : 1"
       inkscape:persp3d-origin="372.04724 : 350.78739 : 1"
       id="perspective2970" />
    <inkscape:perspective
       id="perspective3019"
       inkscape:persp3d-origin="0.5 : 0.33333333 : 1"
       inkscape:vp_z="1 : 0.5 : 1"
       inkscape:vp_y="0 : 1000 : 0"
       inkscape:vp_x="0 : 0.5 : 1"
       sodipodi:type="inkscape:persp3d" />
    <inkscape:perspective
       id="perspective3039"
       inkscape:persp3d-origin="0.5 : 0.33333333 : 1"
       inkscape:vp_z="1 : 0.5 : 1"
       inkscape:vp_y="0 : 1000 : 0"
       inkscape:vp_x="0 : 0.5 : 1"
       sodipodi:type="inkscape:persp3d" />
  </defs>
  <sodipodi:namedview
     id="base"
     pagecolor="#ffffff"
     bordercolor="#666666"
     borderopacity="1.0"
     inkscape:pageopacity="0.0"
     inkscape:pageshadow="2"
     inkscape:zoom="0.35"
     inkscape:cx="-142.35713"
     inkscape:cy="-90.576789"
     inkscape:document-units="px"
     inkscape:current-layer="layer1"
     showgrid="false"
     inkscape:window-width="1920"
     inkscape:window-height="1055"
     inkscape:window-x="1280"
     inkscape:window-y="0"
     inkscape:window-maximized="1" />
  <metadata
     id="metadata2967">
    <rdf:RDF>
      <cc:Work
         rdf:about="">
        <dc:format>image/svg+xml</dc:format>
        <dc:type
           rdf:resource="http://purl.org/dc/dcmitype/StillImage" />
        <dc:title></dc:title>
      </cc:Work>
    </rdf:RDF>
  </metadata>
  <g
     inkscape:label="Calque 1"
     inkscape:groupmode="layer"
     id="layer1"
     style="display:inline">
    <image
       y="-233.92354"
       x="-1129.0714"
       id="image3021"
       height="2544"
       width="3031"
       xlink:href="file:///home/renaud/documents/jeu%20de%20role/loupgarou/china_ethnolinguistic_1967.jpg" />
  </g>
  <g
     inkscape:groupmode="layer"
     id="layer2"
     inkscape:label="Calque"
     style="display:inline">
    <path
       style="fill:none;stroke:#000000;stroke-width:1px;stroke-linecap:butt;stroke-linejoin:miter;stroke-opacity:1;display:inline"
       d="m 1803.5714,34.505 -11.4285,9.99997 -15.7143,5.7143 -7.8572,1.4286 -12.1428,12.1429 -13.5715,17.1428 -14.2857,2.1429 -7.8571,4.2857 -2.8572,5.7143 -7.1428,4.2857 2.1428,6.4286 0,7.1428 -6.4285,5 -17.8572,4.2857 -13.5714,5 -15.7143,0.7143 -8.5714,5.7143 -7.8572,1.4286 -6.4285,-7.8572 -11.4286,-7.8571 -2.1429,-10 5,-9.2857 -9.2857,-5.7143 -5,-5.7143 -4.2857,-13.5714 -4.2857,-5.7143 -6.4286,-2.1429 -9.2857,2.8572 -9.2857,-2.1429 -10.7143,-6.4286 -17.8571,-12.1428 -9.2857,2.1428 -9.2858,0.7143 -2.1428,2.8572 -8.5714,-3.5715 -12.1429,-7.1428 -16.4286,9.2857 -11.4285,0 -7.1429,2.1429 -7.8571,-6.4286 -5.7143,-8.57137 -1.4286,-22.1429 -7.8571,-2.8571 -5,-5.7143 -3.5715,-6.4286 -5,-12.1429 -7.1428,-12.8571 -12.1429,-12.1429 -5.7143,-9.2857 -10,-16.4285 -12.1428,-15.7143 -10,-15 -9.2857,-15 -4.2858,-7.1429 -9.2857,-5.7143 -1.4285,-9.2857 -7.1429,0 -8.5714,-3.5714 -4.2857,-3.5714 -7.8572,-7.8572 -14.2857,-6.4286 -7.8571,3.5715 -3.5715,3.5714 -11.4285,0.7143 -14.2858,-6.4286 -9.2857,0 -7.1428,-0.7143 -18.5715,-4.2857 -15,4.2857 -16.4285,7.1429 -9.2857,3.5714 -15.7143,8.5714 -25,10 -7.8572,5.7143 -11.4285,2.1429 c 0,0 -3.5715,5 -6.4286,5.7143 -2.8572,0.7143 -8.5714,14.2857 -8.5714,14.2857 l -5,10 -5.7143,5 -1.4286,12.8571 9.2857,0 13.5714,0 7.1429,6.4286 0,7.1429 5.7143,9.2857 -5,15 -7.1429,9.2857 -7.1428,8.5714 L 1120,11.6479 1115.7143,33.7908 1105,50.21927 l -2.8571,25.7143 -0.7143,6.4286 8.5714,2.8571 4.2857,7.1429 -16.4286,16.4286 -10.7142,5 -17.8572,12.1428 -16.4286,17.8572 -20,-3.5715 -12.1428,-1.4285 -13.5714,-5.7143 -3.5715,-1.4286 -7.85711,20.7143 -5.7143,15.7143 -5.7143,14.2857 -5,12.1428 2.1429,9.2858 -3.5715,5 -5.7142,12.1428 -1.4286,12.8572 -7.8572,11.4285 2.1429,12.1429 7.8571,7.8571 7.8572,6.4286 5,-0.7143 12.8571,-10.7143 17.85721,-2.8571 20,-0.7143 12.1428,6.4286 12.1429,-21.4286 17.8571,-9.2857 17.8572,3.5714 12.8571,10 15.7143,7.1429 15,12.1428 14.2857,12.1429 15,18.5714 0.7143,5 -5,9.2857 -0.7143,6.4286 -7.1428,0.7143 -6.4286,-2.1429 -6.4286,2.8572 -9.2857,0.7143 -7.8571,-7.1429 -10.7143,7.1429 -22.8572,6.4285 -11.4285,4.2857 -12.1429,7.8572 -8.5714,-4.2857 -4.2857,2.8571 -1.4286,8.5714 -8.5714,4.2858 -17.1429,10 -13.5714,13.5714 -0.7143,12.1428 3.5714,10 -1.4286,2.1429 -8.5714,4.2857 -10.71431,4.2857 -1.4285,7.8572 -22.1429,11.4285 -12.1429,0.7143 -10,0 -14.2857,6.4286 -9.2857,18.5714 -5,8.5715 -15.7143,12.1428 -7.8571,6.4286 -15.7143,0 -13.5714,0 -13.5715,-7.8572 -14.2857,-12.1428 -15,5 -12.1428,4.2857 -6.4286,15.7143 -2.1429,10.7143 -1.4285,12.8571 3.5714,11.4286 9.2857,8.5714 8.5714,10.7143 2.1429,10.7143 -15,11.4286 -7.8571,9.2857 -11.42865,3.5714 -4.2857,5.7143 -16.4286,22.1428 -10,15.7143 -12.8571,10.7143 -22.8572,12.1429 -20.7143,7.1428 -27.1428,3.5715 -27.1429,-2.1429 -22.8571,3.5714 -32.1429,7.8572 -33.5714,10 -31.4286,20 -22.8571,13.5714 -12.1429,1.4286 -7.8571,0.7143 -6.4286,-10.7143 -42.1429,0.7143 -36.4285,-15 -11.4286,0.7142 -21.4286,-5 -18.5714,-19.2857 -18.5714,-10.7143 -35.7143,-7.1428 -29.2857,0 -22.8572,10 -15.7143,-0.7143 -42.8571,-5.7143 -21.4286,-6.4286 -33.5714,-6.4285 -22.1429,1.4285 -23.571397,-20 -21.4286,-43.5714 -14.2857,-42.8571 -12.8571,3.5714 -36.4285997,-27.8571 -25.0000003,-15.7143 -23.571399,-13.5715 -30,-3.5714 -41.428504,-9.2857 -30,-11.4286 -11.4286,-7.8571 4.2857,-19.2857 17.8571,-29.2857 -1.4285,-17.1429 7.1428,-21.4286 -10.7143,-32.8571 -8.5714,-20.7143 -14.2857,-20 -22.8571,-17.1429 -25.7143,3.5715 -5.7143,-6.4286 -7.8572,-22.1429 -22.8571,-20.7142 -0.7143,-15.7143 -5.7143,-11.4286 3.5715,-13.5714 -10.7143,-0.7143 -6.4286,2.8571 -10,-4.2857 -13.5714,1.4286 -8.5715,5 2.8572,7.8571 -2.8572,7.8572 -11.4285,12.1428 -10,0.7143 -10.7143,5.7143 -18.5714,0.7143 -7.8572,20 -5,17.8571 1.4286,14.2857 -3.5714,4.2858 3.5714,12.8571 -2.8572,6.4286 -7.8571,4.2857 -8.5714,2.1428 -10.7143,7.1429 -12.1429,2.1429 -10,0 3.5715,-10 -15,-4.2858 -14.2858,-0.7142 -10,-1.4286 -18.5714,-15.7143 -7.1428,-5 -10,10 -7.1429,12.1429 -5,10.7142 -1.4286,7.1429 -6.4285,7.8571 -6.4286,7.1429 -5.7143,15 -9.2857,11.4286 -5.7143,7.1428 4.2857,12.1429 9.2857,5 0,6.4286 -7.1428,7.1428 -5,4.2857 -7.8572,-5 -7.1428,1.4286 -12.1429,-4.2857 -3.5714,-12.8572 -20.7143,6.4286 -18.5714,2.1429 -18.5715,-0.7143 -15.7142,-1.4286 -11.4286,7.8572 1.4286,10 17.1428,-4.2858 2.1429,6.4286 -8.5715,17.1429 -6.4285,30.7143 7.8571,22.8571 4.2857,10 -5,12.1429 2.8572,8.5714 -1.4286,7.1428 -20,1.4286 6.4286,10 -15,2.1429 -10,27.8571 3.5714,17.1429 -1.4286,3.5714 -15.7143,2.8571 -8.5714,2.8572 -8.5714,7.1428 -16.4286,-2.1428 -32.1428,9.2857 -18.5715,4.2857 -7.8571,10 -10,8.5714 -16.4286,0 -18.5714,-2.8571 -25,-9.2857 -24.2857,23.5714 -10.7143,11.4286 -33.5714,-2.1429 -2.1429,-8.5714 -2.1429,-15 -15.00003,5 -6.4285,4.2857 -11.4286,-11.4286 -5,4.2858 -0.7143,7.1428 -12.8571,2.8572 -18.5715,5.7142 -17.14291,0 -5.7142,9.2858 -3.5715,2.1428 2.1429,7.8572 -1.4286,10.7142 -17.8571,4.2858 -1.4286,20.7142 3.5714,7.8572 -6.4285,8.5714 3.5714,19.2857 8.5714,8.5715 5.7143,-10 15.7143,5 7.14281,5.7142 8.5715,4.2858 -7.1429,14.2857 -2.1428,21.4285 1.4285,12.8572 -8.57141,12.1428 13.57141,15.7143 -2.8571,8.5715 -11.42861,-0.7143 -5.7143,5.7143 -9.2857,-6.4286 -10,-0.7143 -4.2857,3.5714 7.8571,6.4286 10,8.5714 6.4286,4.2857 16.42861,-2.8571 12.1429,5 -2.8572,4.2857 20.7143,20.7143 20,7.8571 28.57153,10 17.1428,10.7143 13.5714,10 7.1429,14.2857 10.7143,12.8572 10.7143,2.1428 30.7143,10.7143 16.4285,11.4286 18.5715,14.2857 7.8571,11.4286 16.4286,7.8571 9.2857,9.2857 -13.5714,15.71433 -21.4286,16.4286 -14.2857,14.2857 -10,7.1429 -4.2857,-1.4286 -4.2858,9.2857 -6.4285,7.1429 -7.1429,3.5714 -12.1428,-7.8572 -18.5715,3.5715 5.7143,17.8571 -2.1428,17.8572 5.7142,13.5714 2.8572,11.4286 0,17.8571 -7.1429,20 -5,7.1429 -11.4285,1.4285 -10.7143,-17.8571 -12.8572,3.5714 2.8572,9.2857 -3.5715,10 19.2858,8.5715 -11.4286,20.7142 -5,27.1429 6.4286,25.7143 25,7.8571 21.4285,10.7143 6.4286,15 15.7143,18.5714 20,15.7143 14.2857,16.4286 5.7143,5.7143 9.2857,-12.8572 15,5.7143 19.2857,10 18.5714,13.5715 16.4286,17.8571 19.2857,16.4286 9.2857,25.7143 11.4286,13.5714 20,-14.2857 11.4286,5.7143 -5,27.8571 7.1428,2.8571 8.5715,10.7143 10.7143,0 6.4285,7.1429 12.1429,0 4.2857,12.1428 9.2857,11.4286 17.1429,7.1429 10,12.8572 7.1428,11.4285 11.4286,-4.2857 5,7.8572 12.1429,0 3.5714,-5 20,10 22.1428,10.7142 11.4286,0 13.5714,2.1429 19.2858,-2.8571 35,-7.1429 6.4285,7.8571 -2.8571,17.8572 -5.7143,6.4286 7.1429,14.2857 15.7142,-10.7143 30,-31.4286 24.2858,-7.1428 c 0,0 19.2857,1.4285 20,4.2857 0.7142,2.8571 15,16.4285 15,16.4285 l 27.1428,7.1429 24.2857,0.7143 2.8572,17.1428 25.7143,6.4286 27.8571,-10 12.1429,-12.1428 25,-15.7143 18.5714,-13.5715 25.000004,-5 26.4286,-27.1428 21.4285,-8.5715 10,13.5715 30.7142993,4.2857 18.5714,-13.5715 19.9999997,-5 1.4286,11.4286 13.5714,2.8572 0.7143,2.1428 -15,7.8572 0,7.1428 18.5714,-4.2857 2.8572,26.4286 -13.5715,12.8571 -0.7143,8.5715 5.7143,0.7143 7.8572,-9.2858 17.1428,2.8572 29.2857,10 12.142897,-9.2857 7.1429,4.2857 13.5714,2.1428 7.1428,5.7143 5.7143,15 0.7143,20.7143 5.7143,18.5714 10,-8.5714 7.8571,5.7143 0,12.1429 2.8572,27.8571 -0.7143,21.4286 -2.1429,22.8571 -6.4285,12.1429 2.8571,10.7143 -8.5714,3.5714 -5.7143,10.7143 -7.1429,2.8571 -7.8571,-2.1428 -7.8571,5 7.1428,7.8571 -5,8.5714 -13.5714,4.2857 -7.1429,11.4286 0,10 -8.571397,8.5714 -1.4286,12.8572 4.285697,10 2.8572,10 -9.285697,15 -4.2857,2.8571 11.428497,10.7143 14.2857,-12.1428 11.4286,-10 17.8572,4.2857 9.2857,0.7143 13.5714,-1.4286 -0.7143,6.4286 -5,5.7142 -2.1428,7.8572 7.1428,7.8571 -1.4286,12.8572 4.2858,5.7143 5,11.4285 5.7142,11.4286 11.4286,-2.1429 5.7143,-5.7142 10.7143,9.2857 -12.1429,18.5714 3.5715,8.5714 -6.4286,12.1429 -10.7143,15.7143 10.7143,3.5714 22.1428,5 13.5715,2.1429 4.2857,2.1428 2.8571,20 9.2857,12.8572 12.8572,0.7142 12.8571,1.4286 11.4286,-10 12.8571,-5.7143 7.8572,-2.8571 2.1428,11.4286 5,13.5714 0.7143,13.5714 10,-2.1428 23.5715,2.1428 -4.2858,-17.1428 c 0,0 12.8572,-13.5715 10,-12.8572 -2.8571,0.7143 -16.4285,-27.1428 -16.4285,-27.1428 l 9.2857,-22.8572 27.1428,0 14.2858,-5.7143 12.8571,-12.1428 11.4286,0.7143 13.5714,7.8571 17.8571,-13.5714 10,7.8571 11.4286,-5.7143 14.2857,12.8572 11.4286,-17.8572 5.7143,0 7.1428,7.1429 18.5715,-6.4286 8.5714,-7.1428 -2.1429,-11.4286 12.1429,-13.5714 16.4286,-7.1429 36.4285,27.8571 15,-5.7142 14.2858,7.1428 15.7142,-5.7143 7.8572,2.8572 2.8571,14.2857 -14.2857,9.2857 0.7143,10 c 0,0 7.8571,10.7143 10,19.2857 2.1429,8.5714 17.1429,7.1429 17.1429,7.1429 0,0 17.8571,22.1428 17.8571,18.5714 0,-3.5714 19.2857,2.1429 19.2857,2.1429 l 15.7143,-3.5715 12.8571,11.4286 5.7143,2.8571 6.4286,-1.4285 18.5714,-4.2857 16.4286,-5 9.2857,2.8571 10.7143,12.1429 27.85715,-8.5715 10,-2.8571 12.1429,2.1428 -4.2857,12.8572 -5,11.4286 -2.1429,11.4285 5.7143,6.4286 5,15.7143 8.5714,15 15,4.2857 22.1429,-22.8571 -16.4286,-10 7.1429,-3.5715 -5,-6.4285 -9.2857,-0.7143 0,-11.4286 15.7143,-10 22.1428,-11.4286 31.4286,-9.2857 36.4286,-15.7143 40.71421,-11.4285 c 0,0 12.1429,-12.1429 15.7143,-11.4286 3.5715,0.7143 17.1429,-12.8572 17.1429,-12.8572 l 12.8571,-6.4285 52.1429,-16.4286 15,-12.1429 20,-9.2857 34.2857,-8.5714 37.1429,-17.8571 21.4285,-10 15,-25 32.8572,-22.8572 3.5714,-18.5714 27.8571,-34.2857 28.5715,-25 33.5714,-45.7143 17.1429,-16.4286 0,-38.5714 8.5714,-26.4286 5.7143,-19.2857 16.4285,-35.7143 6.4286,-15.7143 13.5714,-42.8571 18.5715,-15.0001 14.2857,-10.7142 9.2857,-65 -5.7143,-26.4286 1.4286,-22.1429 -24.2857,0 -14.2857,-12.8571 -17.8572,1.4286 -17.1428,13.5714 -17.8572,-12.1429 10.7143,-5 12.8571,-12.8571 13.5715,-11.4286 18.5714,-18.5714 12.8571,-2.1429 0,-7.8571 -13.5714,-18.5714 -12.8571,-7.1429 -22.8572,-12.1429 -17.8571,-3.5714 -8.5714,-7.8571 -14.2858,-4.2857 -17.1428,7.8571 -5,-2.8571 20.7143,-10 15,-3.5715 25.7143,12.1429 39.2857,2.8571 -12.8572,-22.8571 -22.1428,-17.1429 -27.8572,-5 0,-10.7143 -13.5714,-27.1428 -7.8571,-3.5714 -10,-22.8572 -5,-4.2857 -15,-33.5714 -26.4286,-10 -22.8572,-12.1429 -15.7142,-2.8571 5.7142,-22.8572 9.2858,-35 27.1428,-19.2857 12.8572,-17.85713 13.5714,-21.4286 27.1428,-29.2857 30.7143,-21.4286 7.1429,7.1429 7.8571,-5.7143 5,-9.2857 0.7143,-25.7143 -35,-2.1429 -2.8571,7.1429 -22.8572,2.1428 -7.1428,-2.8571 -5,2.8571 -25.7143,-13.5714 -21.4286,9.2857 -7.8571,7.1429 -4.2857,14.2857 -8.5715,5 -2.8571,10.7143 -10,10 -21.4286,-0.7143 -13.5714,-6.4286 -2.1429,-25.7143 1.4286,-7.8571 -7.8571,-1.4286 -4.2858,-7.8571 -17.8571,-7.8572 -30.7143,0 -7.8571,-5.7142 -10.7143,-12.8572 0,-35.7143 11.4286,-14.2857 11.4285,9.2857 14.2857,-2.8571 5,-4.2857 6.4286,5 25.7143,-29.2857 -0.7143,-9.2857 5.7143,-17.8572 22.8571,-17.1428 24.2858,-23.5715 -2.1429,-10 15,-15.7143 2.8571,-10.7142 12.8572,-9.2858 17.1428,-0.7142 6.4286,-5.7143 4.2857,7.1428 19.2857,10.7143 5,7.1429 -6.4285,13.5714 -0.7143,10.7143 -6.4286,8.5714 -1.4286,5.7143 -10.7142,9.2857 -2.8572,5.7143 9.2857,5.7143 -5,15.7143 4.2857,5.7143 10,0 -2.1428,3.5714 -7.8572,5.7143 7.1429,5.7143 -15,7.1428 -2.8571,5.7143 -7.8572,3.5714 3.5714,11.4286 16.4286,-6.4286 17.1429,-15 25,-32.8571 11.4285,-7.8572 25.7143,-18.5714 5.7143,-7.8571 30,-10 10.7143,-17.8572 41.4286,-53.5714 23.5714,-20.7143 17.8571,-38.5714 10.7143,-26.4286 26.4286,11.4286 40.7143,-5 7.1428,-11.4286 -17.8571,-21.4286 37.1429,-16.4285 12.8571,-25.7143 16.4286,-5 0,-39.2857 10.7143,-0.7143 17.8571,22.1428 10.7143,5.7143 -10,-18.5714 24.2857,-15 -4.2857,-33.5714 -2.1429,-20 -11.4285,-37.8572 -18.5715,-31.4285 17.8572,-16.4286 9.2857,-19.2857 51.4286,-1.4286 9.2857,-13.5714 -7.1429,-12.8572 9.2857,-24.2857 7.1429,-38.5714 -5.7143,-38.5714 -0.7143,-37.1429 14.2857,-24.2857 -11.4285,-18.5714 L 1790,52.36217 1803.5714,34.505 z"
       id="path3029-9" />
  </g>
</svg>
